<?xml version="1.0" encoding="UTF-8" standalone="no"?>
<!-- Created with Inkscape (http://www.inkscape.org/) -->

<svg
   xmlns:dc="http://purl.org/dc/elements/1.1/"
   xmlns:cc="http://creativecommons.org/ns#"
   xmlns:rdf="http://www.w3.org/1999/02/22-rdf-syntax-ns#"
   xmlns:svg="http://www.w3.org/2000/svg"
   xmlns="http://www.w3.org/2000/svg"
   xmlns:xlink="http://www.w3.org/1999/xlink"
   xmlns:sodipodi="http://sodipodi.sourceforge.net/DTD/sodipodi-0.dtd"
   xmlns:inkscape="http://www.inkscape.org/namespaces/inkscape"
   width="210mm"
   height="297mm"
   id="svg2"
   version="1.1"
   inkscape:version="0.48.0 r9654"
   sodipodi:docname="新規ドキュメント 1">
  <defs
     id="defs4">
    <linearGradient
       id="linearGradient3973-9">
      <stop
         id="stop3975-6"
         offset="0"
         style="stop-color:#f3cb8f;stop-opacity:1;" />
      <stop
         id="stop3977-5"
         offset="1"
         style="stop-color:#d2e2ff;stop-opacity:1" />
    </linearGradient>
    <linearGradient
       gradientTransform="matrix(1.498057,0,0,1.4274142,-354.25884,53.106589)"
       gradientUnits="userSpaceOnUse"
       y2="349.36218"
       x2="417"
       y1="161.36218"
       x1="294"
       id="linearGradient3979-1"
       xlink:href="#linearGradient3973-9"
       inkscape:collect="always" />
    <linearGradient
       id="linearGradient2987-4-7">
      <stop
         style="stop-color:#0000ff;stop-opacity:0.23076923;"
         offset="0"
         id="stop2995-2-6" />
      <stop
         id="stop2991-0-3"
         offset="1"
         style="stop-color:#0000ff;stop-opacity:0;" />
    </linearGradient>
    <linearGradient
       inkscape:collect="always"
       xlink:href="#linearGradient2987-4-7"
       id="linearGradient3814-4"
       gradientUnits="userSpaceOnUse"
       gradientTransform="translate(172.73187,102.42901)"
       x1="371.73615"
       y1="411.92548"
       x2="161.62437"
       y2="137.16399" />
    <linearGradient
       id="linearGradient2987-4">
      <stop
         style="stop-color:#0000ff;stop-opacity:0.23076923;"
         offset="0"
         id="stop2995-2" />
      <stop
         id="stop2991-0"
         offset="1"
         style="stop-color:#0000ff;stop-opacity:0;" />
    </linearGradient>
    <linearGradient
       gradientTransform="translate(-8.8807516,-35.523006)"
       gradientUnits="userSpaceOnUse"
       y2="137.16399"
       x2="161.62437"
       y1="411.92548"
       x1="371.73615"
       id="linearGradient2993-5"
       xlink:href="#linearGradient2987-4"
       inkscape:collect="always" />
    <linearGradient
       id="linearGradient2987">
      <stop
         style="stop-color:#0000ff;stop-opacity:0.23076923;"
         offset="0"
         id="stop2995" />
      <stop
         id="stop2991"
         offset="1"
         style="stop-color:#0000ff;stop-opacity:0;" />
    </linearGradient>
    <linearGradient
       id="linearGradient3781">
      <stop
         id="stop3783"
         offset="0"
         style="stop-color:#c5b35a;stop-opacity:1;" />
      <stop
         id="stop3785"
         offset="1"
         style="stop-color:#c5b35a;stop-opacity:0.79720283;" />
    </linearGradient>
  </defs>
  <sodipodi:namedview
     id="base"
     pagecolor="#ffffff"
     bordercolor="#666666"
     borderopacity="1.0"
     inkscape:pageopacity="0.0"
     inkscape:pageshadow="2"
     inkscape:zoom="1.4"
     inkscape:cx="123.32643"
     inkscape:cy="452.71211"
     inkscape:document-units="px"
     inkscape:current-layer="g3103"
     showgrid="false"
     inkscape:window-width="844"
     inkscape:window-height="463"
     inkscape:window-x="280"
     inkscape:window-y="259"
     inkscape:window-maximized="0" />
  <metadata
     id="metadata7">
    <rdf:RDF>
      <cc:Work
         rdf:about="">
        <dc:format>image/svg+xml</dc:format>
        <dc:type
           rdf:resource="http://purl.org/dc/dcmitype/StillImage" />
        <dc:title></dc:title>
      </cc:Work>
    </rdf:RDF>
  </metadata>
  <g
     inkscape:label="レイヤー 1"
     inkscape:groupmode="layer"
     id="layer1">
    <g
       style="enable-background:new"
       id="g3068"
       transform="translate(-4.2945757,-51.732146)">
      <g
         inkscape:label="student"
         id="layer5">
        <g
           id="g3103"
           transform="translate(-11.428571,40.714286)">
          <g
             id="g3887"
             transform="translate(-62.142857,-25)">
            <rect
               y="552.02313"
               x="121.25549"
               height="137.53911"
               width="208.90375"
               id="rect4083"
               style="fill:#f2f5ff;fill-opacity:1;stroke:#000024;stroke-width:2.71466017;stroke-miterlimit:4;stroke-opacity:1;stroke-dasharray:none" />
            <rect
               y="561.39447"
               x="130.6599"
               height="82.526627"
               width="72.947655"
               id="rect4093"
               style="fill:#dbfeff;fill-opacity:1;stroke:#000003;stroke-width:2.71466017;stroke-miterlimit:4;stroke-opacity:1;stroke-dasharray:none" />
            <g
               transform="matrix(0.33783557,0,0,0.33783557,127.29513,326.43995)"
               id="g4089">
              <path
                 style="fill:#d7d8dd;fill-opacity:1;stroke:#000003;stroke-width:5;stroke-linecap:butt;stroke-linejoin:miter;stroke-miterlimit:4;stroke-opacity:1;stroke-dasharray:none"
                 d="m 83.174832,849.698 0.11996,19.10972 c -42.6298,8.80857 -71.32616,21.50607 -68.231355,70.51049 l 199.554423,-1.1949 c 0,0 -0.35906,-1.0472 -0.49686,-2.9623 -1.82648,-25.38541 -16.08852,-63.06526 -75.47757,-65.14908 l -0.50151,-19.11899 c 0,0 -5.97469,-25.09367 -31.06836,-28.67848 C 81.979892,818.62965 83.174832,849.698 83.174832,849.698 z"
                 id="path4087"
                 inkscape:connector-curvature="0"
                 sodipodi:nodetypes="ccccsccsc" />
              <path
                 sodipodi:type="arc"
                 style="fill:#d7d8dd;fill-opacity:1;stroke:#000003;stroke-width:5;stroke-miterlimit:4;stroke-opacity:1;stroke-dasharray:none"
                 id="path4085"
                 sodipodi:cx="146.37975"
                 sodipodi:cy="872.52423"
                 sodipodi:rx="60.344303"
                 sodipodi:ry="62.734177"
                 d="m 206.72405,872.52423 c 0,34.64713 -27.01707,62.73418 -60.3443,62.73418 -33.32724,0 -60.344308,-28.08705 -60.344308,-62.73418 0,-34.64713 27.017068,-62.73418 60.344308,-62.73418 33.32723,0 60.3443,28.08705 60.3443,62.73418 z"
                 transform="translate(-33.928968,-76.000888)" />
            </g>
            <rect
               y="562.13129"
               x="219.08131"
               height="12.526364"
               width="91.368767"
               id="rect4095"
               style="fill:#8f908e;fill-opacity:1;stroke:none" />
            <rect
               y="581.65771"
               x="219.08131"
               height="12.526364"
               width="77.368713"
               id="rect4095-8"
               style="fill:#8f908e;fill-opacity:1;stroke:none" />
            <rect
               y="601.55255"
               x="219.08131"
               height="12.526364"
               width="86.210854"
               id="rect4095-4"
               style="fill:#8f908e;fill-opacity:1;stroke:none" />
            <rect
               y="620.71051"
               x="219.08131"
               height="12.526364"
               width="62.631813"
               id="rect4095-3"
               style="fill:#8f908e;fill-opacity:1;stroke:none" />
            <rect
               y="648.78821"
               x="219.43031"
               height="29.473799"
               width="102.42144"
               id="rect4095-5"
               style="fill:#8f908e;fill-opacity:1;stroke:none" />
            <path
               sodipodi:nodetypes="cscsc"
               inkscape:connector-curvature="0"
               id="path4079"
               d="m 165.75377,564.00447 c 0,0 -19.98199,-2.88583 -21.3555,24.7092 -1.37351,27.59502 18.72266,30.41663 18.72266,30.41663 0,0 17.20474,1.97068 23.75298,-26.38491 6.54824,-28.35558 -21.12014,-28.74092 -21.12014,-28.74092 z"
               style="fill:#ffc199;fill-opacity:1;stroke:#000000;stroke-width:0.41376111px;stroke-linecap:butt;stroke-linejoin:miter;stroke-opacity:1" />
            <path
               sodipodi:nodetypes="scscccscscccsscsss"
               inkscape:connector-curvature="0"
               id="path4081"
               d="m 143.5481,582.61954 c -2.72417,18.91904 2.1829,19.4003 2.1829,19.4003 0,0 -2.0522,-4.72674 -0.9626,-9.91558 1.0896,-5.18884 3.46893,-9.64526 3.46893,-9.64526 l 4.39638,5.67818 5.03145,-8.38316 c 0,0 6.67605,4.97382 6.13125,7.56824 -0.5448,2.59442 5.33621,-6.87166 5.33621,-6.87166 0,0 6.66894,3.12218 7.2386,7.00847 0.56965,3.8863 2.56606,-5.93518 2.56606,-5.93518 0,0 4.15553,1.87179 5.82255,4.76523 1.60852,5.4224 -0.34866,15.01789 -2.21878,20.12861 1.83375,-4.04906 3.84429,-5.65473 4.97957,-8.57642 1.51381,-3.89577 1.85583,-8.78422 1.86281,-11.90405 0.0135,-6.03589 -0.96765,-10.68079 -6.4032,-16.47625 -3.83198,-3.97875 -10.15657,-6.24973 -14.76086,-6.65475 -1.66028,-0.14605 -7.19186,0.12283 -8.78501,0.66229 -8.94192,3.02782 -14.41601,8.94036 -15.88626,19.15099 z"
               style="fill:#764a30;fill-opacity:1;stroke:#000000;stroke-width:0.41376111px;stroke-linecap:butt;stroke-linejoin:miter;stroke-opacity:1" />
          </g>
          <g
             transform="translate(-47.142857,-5)"
             id="g3901">
            <rect
               style="fill:#f2f5ff;fill-opacity:1;stroke:#000024;stroke-width:2.71466017;stroke-miterlimit:4;stroke-opacity:1;stroke-dasharray:none"
               id="rect3903"
               width="208.90375"
               height="137.53911"
               x="121.25549"
               y="552.02313" />
            <rect
               style="fill:#dbfeff;fill-opacity:1;stroke:#000003;stroke-width:2.71466017;stroke-miterlimit:4;stroke-opacity:1;stroke-dasharray:none"
               id="rect3905"
               width="72.947655"
               height="82.526627"
               x="130.6599"
               y="561.39447" />
            <g
               id="g3907"
               transform="matrix(0.33783557,0,0,0.33783557,127.29513,326.43995)">
              <path
                 sodipodi:nodetypes="ccccsccsc"
                 inkscape:connector-curvature="0"
                 id="path3909"
                 d="m 83.174832,849.698 0.11996,19.10972 c -42.6298,8.80857 -71.32616,21.50607 -68.231355,70.51049 l 199.554423,-1.1949 c 0,0 -0.35906,-1.0472 -0.49686,-2.9623 -1.82648,-25.38541 -16.08852,-63.06526 -75.47757,-65.14908 l -0.50151,-19.11899 c 0,0 -5.97469,-25.09367 -31.06836,-28.67848 C 81.979892,818.62965 83.174832,849.698 83.174832,849.698 z"
                 style="fill:#d7d8dd;fill-opacity:1;stroke:#000003;stroke-width:5;stroke-linecap:butt;stroke-linejoin:miter;stroke-miterlimit:4;stroke-opacity:1;stroke-dasharray:none" />
              <path
                 transform="translate(-33.928968,-76.000888)"
                 d="m 206.72405,872.52423 c 0,34.64713 -27.01707,62.73418 -60.3443,62.73418 -33.32724,0 -60.344308,-28.08705 -60.344308,-62.73418 0,-34.64713 27.017068,-62.73418 60.344308,-62.73418 33.32723,0 60.3443,28.08705 60.3443,62.73418 z"
                 sodipodi:ry="62.734177"
                 sodipodi:rx="60.344303"
                 sodipodi:cy="872.52423"
                 sodipodi:cx="146.37975"
                 id="path3911"
                 style="fill:#d7d8dd;fill-opacity:1;stroke:#000003;stroke-width:5;stroke-miterlimit:4;stroke-opacity:1;stroke-dasharray:none"
                 sodipodi:type="arc" />
            </g>
            <rect
               style="fill:#8f908e;fill-opacity:1;stroke:none"
               id="rect3913"
               width="91.368767"
               height="12.526364"
               x="219.08131"
               y="562.13129" />
            <rect
               style="fill:#8f908e;fill-opacity:1;stroke:none"
               id="rect3915"
               width="77.368713"
               height="12.526364"
               x="219.08131"
               y="581.65771" />
            <rect
               style="fill:#8f908e;fill-opacity:1;stroke:none"
               id="rect3917"
               width="86.210854"
               height="12.526364"
               x="219.08131"
               y="601.55255" />
            <rect
               style="fill:#8f908e;fill-opacity:1;stroke:none"
               id="rect3919"
               width="62.631813"
               height="12.526364"
               x="219.08131"
               y="620.71051" />
            <rect
               style="fill:#8f908e;fill-opacity:1;stroke:none"
               id="rect3921"
               width="102.42144"
               height="29.473799"
               x="219.43031"
               y="648.78821" />
            <path
               style="fill:#ffc199;fill-opacity:1;stroke:#000000;stroke-width:0.41376111px;stroke-linecap:butt;stroke-linejoin:miter;stroke-opacity:1"
               d="m 165.75377,564.00447 c 0,0 -19.98199,-2.88583 -21.3555,24.7092 -1.37351,27.59502 18.72266,30.41663 18.72266,30.41663 0,0 17.20474,1.97068 23.75298,-26.38491 6.54824,-28.35558 -21.12014,-28.74092 -21.12014,-28.74092 z"
               id="path3923"
               inkscape:connector-curvature="0"
               sodipodi:nodetypes="cscsc" />
            <path
               style="fill:#764a30;fill-opacity:1;stroke:#000000;stroke-width:0.41376111px;stroke-linecap:butt;stroke-linejoin:miter;stroke-opacity:1"
               d="m 143.5481,582.61954 c -2.72417,18.91904 2.1829,19.4003 2.1829,19.4003 0,0 -2.0522,-4.72674 -0.9626,-9.91558 1.0896,-5.18884 3.46893,-9.64526 3.46893,-9.64526 l 4.39638,5.67818 5.03145,-8.38316 c 0,0 6.67605,4.97382 6.13125,7.56824 -0.5448,2.59442 5.33621,-6.87166 5.33621,-6.87166 0,0 6.66894,3.12218 7.2386,7.00847 0.56965,3.8863 2.56606,-5.93518 2.56606,-5.93518 0,0 4.15553,1.87179 5.82255,4.76523 1.60852,5.4224 -0.34866,15.01789 -2.21878,20.12861 1.83375,-4.04906 3.84429,-5.65473 4.97957,-8.57642 1.51381,-3.89577 1.85583,-8.78422 1.86281,-11.90405 0.0135,-6.03589 -0.96765,-10.68079 -6.4032,-16.47625 -3.83198,-3.97875 -10.15657,-6.24973 -14.76086,-6.65475 -1.66028,-0.14605 -7.19186,0.12283 -8.78501,0.66229 -8.94192,3.02782 -14.41601,8.94036 -15.88626,19.15099 z"
               id="path3925"
               inkscape:connector-curvature="0"
               sodipodi:nodetypes="scscccscscccsscsss" />
          </g>
          <g
             id="g3927"
             transform="translate(-29.285714,13.571429)">
            <rect
               y="552.02313"
               x="121.25549"
               height="137.53911"
               width="208.90375"
               id="rect3929"
               style="fill:#f2f5ff;fill-opacity:1;stroke:#000024;stroke-width:2.71466017;stroke-miterlimit:4;stroke-opacity:1;stroke-dasharray:none" />
            <rect
               y="561.39447"
               x="130.6599"
               height="82.526627"
               width="72.947655"
               id="rect3931"
               style="fill:#dbfeff;fill-opacity:1;stroke:#000003;stroke-width:2.71466017;stroke-miterlimit:4;stroke-opacity:1;stroke-dasharray:none" />
            <g
               transform="matrix(0.33783557,0,0,0.33783557,127.29513,326.43995)"
               id="g3933">
              <path
                 style="fill:#d7d8dd;fill-opacity:1;stroke:#000003;stroke-width:5;stroke-linecap:butt;stroke-linejoin:miter;stroke-miterlimit:4;stroke-opacity:1;stroke-dasharray:none"
                 d="m 83.174832,849.698 0.11996,19.10972 c -42.6298,8.80857 -71.32616,21.50607 -68.231355,70.51049 l 199.554423,-1.1949 c 0,0 -0.35906,-1.0472 -0.49686,-2.9623 -1.82648,-25.38541 -16.08852,-63.06526 -75.47757,-65.14908 l -0.50151,-19.11899 c 0,0 -5.97469,-25.09367 -31.06836,-28.67848 C 81.979892,818.62965 83.174832,849.698 83.174832,849.698 z"
                 id="path3935"
                 inkscape:connector-curvature="0"
                 sodipodi:nodetypes="ccccsccsc" />
              <path
                 sodipodi:type="arc"
                 style="fill:#d7d8dd;fill-opacity:1;stroke:#000003;stroke-width:5;stroke-miterlimit:4;stroke-opacity:1;stroke-dasharray:none"
                 id="path3937"
                 sodipodi:cx="146.37975"
                 sodipodi:cy="872.52423"
                 sodipodi:rx="60.344303"
                 sodipodi:ry="62.734177"
                 d="m 206.72405,872.52423 c 0,34.64713 -27.01707,62.73418 -60.3443,62.73418 -33.32724,0 -60.344308,-28.08705 -60.344308,-62.73418 0,-34.64713 27.017068,-62.73418 60.344308,-62.73418 33.32723,0 60.3443,28.08705 60.3443,62.73418 z"
                 transform="translate(-33.928968,-76.000888)" />
            </g>
            <rect
               y="562.13129"
               x="219.08131"
               height="12.526364"
               width="91.368767"
               id="rect3939"
               style="fill:#8f908e;fill-opacity:1;stroke:none" />
            <rect
               y="581.65771"
               x="219.08131"
               height="12.526364"
               width="77.368713"
               id="rect3941"
               style="fill:#8f908e;fill-opacity:1;stroke:none" />
            <rect
               y="601.55255"
               x="219.08131"
               height="12.526364"
               width="86.210854"
               id="rect3943"
               style="fill:#8f908e;fill-opacity:1;stroke:none" />
            <rect
               y="620.71051"
               x="219.08131"
               height="12.526364"
               width="62.631813"
               id="rect3945"
               style="fill:#8f908e;fill-opacity:1;stroke:none" />
            <rect
               y="648.78821"
               x="219.43031"
               height="29.473799"
               width="102.42144"
               id="rect3947"
               style="fill:#8f908e;fill-opacity:1;stroke:none" />
            <path
               sodipodi:nodetypes="cscsc"
               inkscape:connector-curvature="0"
               id="path3949"
               d="m 165.75377,564.00447 c 0,0 -19.98199,-2.88583 -21.3555,24.7092 -1.37351,27.59502 18.72266,30.41663 18.72266,30.41663 0,0 17.20474,1.97068 23.75298,-26.38491 6.54824,-28.35558 -21.12014,-28.74092 -21.12014,-28.74092 z"
               style="fill:#ffc199;fill-opacity:1;stroke:#000000;stroke-width:0.41376111px;stroke-linecap:butt;stroke-linejoin:miter;stroke-opacity:1" />
            <path
               sodipodi:nodetypes="scscccscscccsscsss"
               inkscape:connector-curvature="0"
               id="path3951"
               d="m 143.5481,582.61954 c -2.72417,18.91904 2.1829,19.4003 2.1829,19.4003 0,0 -2.0522,-4.72674 -0.9626,-9.91558 1.0896,-5.18884 3.46893,-9.64526 3.46893,-9.64526 l 4.39638,5.67818 5.03145,-8.38316 c 0,0 6.67605,4.97382 6.13125,7.56824 -0.5448,2.59442 5.33621,-6.87166 5.33621,-6.87166 0,0 6.66894,3.12218 7.2386,7.00847 0.56965,3.8863 2.56606,-5.93518 2.56606,-5.93518 0,0 4.15553,1.87179 5.82255,4.76523 1.60852,5.4224 -0.34866,15.01789 -2.21878,20.12861 1.83375,-4.04906 3.84429,-5.65473 4.97957,-8.57642 1.51381,-3.89577 1.85583,-8.78422 1.86281,-11.90405 0.0135,-6.03589 -0.96765,-10.68079 -6.4032,-16.47625 -3.83198,-3.97875 -10.15657,-6.24973 -14.76086,-6.65475 -1.66028,-0.14605 -7.19186,0.12283 -8.78501,0.66229 -8.94192,3.02782 -14.41601,8.94036 -15.88626,19.15099 z"
               style="fill:#764a30;fill-opacity:1;stroke:#000000;stroke-width:0.41376111px;stroke-linecap:butt;stroke-linejoin:miter;stroke-opacity:1" />
          </g>
          <g
             transform="translate(-9.285714,34.285715)"
             id="g3953">
            <rect
               style="fill:#f2f5ff;fill-opacity:1;stroke:#000024;stroke-width:2.71466017;stroke-miterlimit:4;stroke-opacity:1;stroke-dasharray:none"
               id="rect3955"
               width="208.90375"
               height="137.53911"
               x="121.25549"
               y="552.02313" />
            <rect
               style="fill:#dbfeff;fill-opacity:1;stroke:#000003;stroke-width:2.71466017;stroke-miterlimit:4;stroke-opacity:1;stroke-dasharray:none"
               id="rect3957"
               width="72.947655"
               height="82.526627"
               x="130.6599"
               y="561.39447" />
            <g
               id="g3959"
               transform="matrix(0.33783557,0,0,0.33783557,127.29513,326.43995)">
              <path
                 sodipodi:nodetypes="ccccsccsc"
                 inkscape:connector-curvature="0"
                 id="path3961"
                 d="m 83.174832,849.698 0.11996,19.10972 c -42.6298,8.80857 -71.32616,21.50607 -68.231355,70.51049 l 199.554423,-1.1949 c 0,0 -0.35906,-1.0472 -0.49686,-2.9623 -1.82648,-25.38541 -16.08852,-63.06526 -75.47757,-65.14908 l -0.50151,-19.11899 c 0,0 -5.97469,-25.09367 -31.06836,-28.67848 C 81.979892,818.62965 83.174832,849.698 83.174832,849.698 z"
                 style="fill:#d7d8dd;fill-opacity:1;stroke:#000003;stroke-width:5;stroke-linecap:butt;stroke-linejoin:miter;stroke-miterlimit:4;stroke-opacity:1;stroke-dasharray:none" />
              <path
                 transform="translate(-33.928968,-76.000888)"
                 d="m 206.72405,872.52423 c 0,34.64713 -27.01707,62.73418 -60.3443,62.73418 -33.32724,0 -60.344308,-28.08705 -60.344308,-62.73418 0,-34.64713 27.017068,-62.73418 60.344308,-62.73418 33.32723,0 60.3443,28.08705 60.3443,62.73418 z"
                 sodipodi:ry="62.734177"
                 sodipodi:rx="60.344303"
                 sodipodi:cy="872.52423"
                 sodipodi:cx="146.37975"
                 id="path3963"
                 style="fill:#d7d8dd;fill-opacity:1;stroke:#000003;stroke-width:5;stroke-miterlimit:4;stroke-opacity:1;stroke-dasharray:none"
                 sodipodi:type="arc" />
            </g>
            <rect
               style="fill:#8f908e;fill-opacity:1;stroke:none"
               id="rect3965"
               width="91.368767"
               height="12.526364"
               x="219.08131"
               y="562.13129" />
            <rect
               style="fill:#8f908e;fill-opacity:1;stroke:none"
               id="rect3967"
               width="77.368713"
               height="12.526364"
               x="219.08131"
               y="581.65771" />
            <rect
               style="fill:#8f908e;fill-opacity:1;stroke:none"
               id="rect3969"
               width="86.210854"
               height="12.526364"
               x="219.08131"
               y="601.55255" />
            <rect
               style="fill:#8f908e;fill-opacity:1;stroke:none"
               id="rect3971"
               width="62.631813"
               height="12.526364"
               x="219.08131"
               y="620.71051" />
            <rect
               style="fill:#8f908e;fill-opacity:1;stroke:none"
               id="rect3973"
               width="102.42144"
               height="29.473799"
               x="219.43031"
               y="648.78821" />
            <path
               style="fill:#ffc199;fill-opacity:1;stroke:#000000;stroke-width:0.41376111px;stroke-linecap:butt;stroke-linejoin:miter;stroke-opacity:1"
               d="m 165.75377,564.00447 c 0,0 -19.98199,-2.88583 -21.3555,24.7092 -1.37351,27.59502 18.72266,30.41663 18.72266,30.41663 0,0 17.20474,1.97068 23.75298,-26.38491 6.54824,-28.35558 -21.12014,-28.74092 -21.12014,-28.74092 z"
               id="path3975"
               inkscape:connector-curvature="0"
               sodipodi:nodetypes="cscsc" />
            <path
               style="fill:#764a30;fill-opacity:1;stroke:#000000;stroke-width:0.41376111px;stroke-linecap:butt;stroke-linejoin:miter;stroke-opacity:1"
               d="m 143.5481,582.61954 c -2.72417,18.91904 2.1829,19.4003 2.1829,19.4003 0,0 -2.0522,-4.72674 -0.9626,-9.91558 1.0896,-5.18884 3.46893,-9.64526 3.46893,-9.64526 l 4.39638,5.67818 5.03145,-8.38316 c 0,0 6.67605,4.97382 6.13125,7.56824 -0.5448,2.59442 5.33621,-6.87166 5.33621,-6.87166 0,0 6.66894,3.12218 7.2386,7.00847 0.56965,3.8863 2.56606,-5.93518 2.56606,-5.93518 0,0 4.15553,1.87179 5.82255,4.76523 1.60852,5.4224 -0.34866,15.01789 -2.21878,20.12861 1.83375,-4.04906 3.84429,-5.65473 4.97957,-8.57642 1.51381,-3.89577 1.85583,-8.78422 1.86281,-11.90405 0.0135,-6.03589 -0.96765,-10.68079 -6.4032,-16.47625 -3.83198,-3.97875 -10.15657,-6.24973 -14.76086,-6.65475 -1.66028,-0.14605 -7.19186,0.12283 -8.78501,0.66229 -8.94192,3.02782 -14.41601,8.94036 -15.88626,19.15099 z"
               id="path3977"
               inkscape:connector-curvature="0"
               sodipodi:nodetypes="scscccscscccsscsss" />
          </g>
        </g>
      </g>
    </g>
  </g>
</svg>
