<?xml version="1.0" encoding="UTF-8" standalone="no"?>
<!-- Created with Inkscape (http://www.inkscape.org/) -->

<svg
   xmlns:dc="http://purl.org/dc/elements/1.1/"
   xmlns:cc="http://creativecommons.org/ns#"
   xmlns:rdf="http://www.w3.org/1999/02/22-rdf-syntax-ns#"
   xmlns:svg="http://www.w3.org/2000/svg"
   xmlns="http://www.w3.org/2000/svg"
   xmlns:sodipodi="http://sodipodi.sourceforge.net/DTD/sodipodi-0.dtd"
   xmlns:inkscape="http://www.inkscape.org/namespaces/inkscape"
   width="210mm"
   height="297mm"
   id="svg3973"
   version="1.1"
   inkscape:version="0.48.1 r9760"
   sodipodi:docname="wait.svg">
  <defs
     id="defs3975">
    <filter
       id="filter4559"
       inkscape:label="Diffuse light"
       inkscape:menu="ABCs"
       inkscape:menu-tooltip="Basic diffuse bevel to use for building textures"
       color-interpolation-filters="sRGB">
      <feGaussianBlur
         id="feGaussianBlur4561"
         stdDeviation="6"
         in="SourceGraphic"
         result="result0" />
      <feDiffuseLighting
         id="feDiffuseLighting4563"
         diffuseConstant="1"
         surfaceScale="10"
         result="result5">
        <feDistantLight
           id="feDistantLight4565"
           elevation="25"
           azimuth="235" />
      </feDiffuseLighting>
      <feComposite
         id="feComposite4567"
         in2="SourceGraphic"
         k1="1"
         in="result5"
         result="result4"
         operator="arithmetic"
         k2="0"
         k3="0.6" />
    </filter>
  </defs>
  <sodipodi:namedview
     id="base"
     pagecolor="#ffffff"
     bordercolor="#666666"
     borderopacity="1.0"
     inkscape:pageopacity="0.0"
     inkscape:pageshadow="2"
     inkscape:zoom="0.35355339"
     inkscape:cx="475.39928"
     inkscape:cy="453.61584"
     inkscape:document-units="px"
     inkscape:current-layer="layer3"
     showgrid="false"
     inkscape:window-width="1280"
     inkscape:window-height="947"
     inkscape:window-x="0"
     inkscape:window-y="25"
     inkscape:window-maximized="1" />
  <metadata
     id="metadata3978">
    <rdf:RDF>
      <cc:Work
         rdf:about="">
        <dc:format>image/svg+xml</dc:format>
        <dc:type
           rdf:resource="http://purl.org/dc/dcmitype/StillImage" />
        <dc:title></dc:title>
      </cc:Work>
    </rdf:RDF>
  </metadata>
  <g
     inkscape:label="clock"
     inkscape:groupmode="layer"
     id="layer1"
     sodipodi:insensitive="true">
    <path
       sodipodi:type="arc"
       style="fill:#955c13;fill-opacity:1;stroke:#000000;stroke-width:5;stroke-miterlimit:4;stroke-opacity:1;stroke-dasharray:none"
       id="path3983"
       sodipodi:cx="359.28571"
       sodipodi:cy="550.2193"
       sodipodi:rx="270.71429"
       sodipodi:ry="270.71429"
       d="m 630,550.2193 a 270.71429,270.71429 0 1 1 -541.428589,0 270.71429,270.71429 0 1 1 541.428589,0 z"
       transform="translate(0,-98.571429)" />
    <text
       xml:space="preserve"
       style="font-size:40px;font-style:normal;font-weight:normal;line-height:125%;letter-spacing:0px;word-spacing:0px;fill:#000000;fill-opacity:1;stroke:none;font-family:Sans"
       x="324.28571"
       y="229.50504"
       id="text4493"
       sodipodi:linespacing="125%"><tspan
         sodipodi:role="line"
         id="tspan4495"
         x="324.28571"
         y="229.50504"></tspan></text>
    <text
       xml:space="preserve"
       style="font-size:40px;font-style:normal;font-weight:normal;line-height:125%;letter-spacing:0px;word-spacing:0px;fill:#000000;fill-opacity:1;stroke:none;font-family:Sans"
       x="258.57144"
       y="295.2193"
       id="text4505"
       sodipodi:linespacing="125%"><tspan
         sodipodi:role="line"
         id="tspan4507"
         x="258.57144"
         y="295.2193"
         style="font-size:144px">12</tspan></text>
    <text
       xml:space="preserve"
       style="font-size:40px;font-style:normal;font-weight:normal;line-height:125%;letter-spacing:0px;word-spacing:0px;fill:#000000;fill-opacity:1;stroke:none;font-family:Sans"
       x="549.20551"
       y="-112.37277"
       id="text4509"
       sodipodi:linespacing="125%"
       transform="matrix(0.70343199,0.71076257,-0.71076257,0.70343199,0,0)"
       inkscape:transform-center-x="41.174794"><tspan
         sodipodi:role="line"
         id="tspan4511"
         x="549.20551"
         y="-112.37277"
         style="font-size:100px">1</tspan></text>
    <text
       xml:space="preserve"
       style="font-size:40px;font-style:normal;font-weight:normal;line-height:125%;letter-spacing:0px;word-spacing:0px;fill:#000000;fill-opacity:1;stroke:none;font-family:Sans"
       x="-145.5719"
       y="390.25327"
       id="text4513"
       sodipodi:linespacing="125%"
       transform="matrix(0.7065796,-0.70763357,0.70763357,0.7065796,0,0)"><tspan
         sodipodi:role="line"
         id="tspan4515"
         x="-145.5719"
         y="390.25327"
         style="font-size:100px">11</tspan></text>
    <path
       style="fill:#e2ee40;fill-opacity:1;stroke:#000000;stroke-width:5;stroke-linecap:butt;stroke-linejoin:miter;stroke-miterlimit:4;stroke-opacity:1;stroke-dasharray:none"
       d="m 349.66823,470.33056 c 0,0 -6.04606,-110.99123 -18.9032,-133.7216 -12.85714,-22.73037 -11.42857,-17.56438 -11.42857,-17.56438 l 37.14286,-56.82593 c -0.054,1.53122 30.91837,56.22766 28.719,60.78438 -27.30383,15.82478 -27.95989,101.02518 -35.53009,147.32753 z"
       id="path4517"
       inkscape:connector-curvature="0"
       sodipodi:nodetypes="cscccc" />
  </g>
  <g
     inkscape:groupmode="layer"
     id="layer2"
     inkscape:label="text"
     sodipodi:insensitive="true">
    <g
       id="g4548"
       transform="matrix(0.47107381,0,0,0.47107381,54.803995,79.95232)"
       style="filter:url(#filter4559)">
      <path
         inkscape:connector-curvature="0"
         id="path4524"
         d="m 72,760.36218 c -0.669668,22.06499 2.005897,44.06487 4,66 4.495119,49.44631 11.005942,99.0416 18,148 6.63607,46.45242 16.89304,106.21392 20,100.00002 30.15023,-60.3005 95.50864,-109.52019 124,-176.00002 10.85474,-25.32773 15.72899,-52.32248 26,-78 1.88562,-4.71404 6,-19.07718 6,-14 0,99.74648 -8,198.27782 -8,298.00002 0,4.4721 3.20628,-8.5079 6,-12 19.51897,-24.3987 41.58927,-45.9181 60,-72 47.0798,-66.6964 111.54885,-159.29309 124,-234.00002"
         style="fill:none;stroke:#19eb00;stroke-width:50;stroke-linecap:butt;stroke-linejoin:miter;stroke-miterlimit:4;stroke-opacity:1;stroke-dasharray:none" />
      <path
         inkscape:connector-curvature="0"
         id="path4526"
         d="m 518,1016.3622 c -3.02232,-183.00065 -149.00096,40.4995 -110,60 47.32317,23.6616 87.1379,-64.2758 100,-90.00002 0.19037,-0.38075 0.7642,-16 2,-16 3.31023,0 -25.94069,164.76442 32,130.00002"
         style="fill:none;stroke:#19eb00;stroke-width:50;stroke-linecap:butt;stroke-linejoin:miter;stroke-miterlimit:4;stroke-opacity:1;stroke-dasharray:none" />
      <path
         inkscape:connector-curvature="0"
         id="path4528"
         d="m 664,918.36218 c -85.42883,15.34443 0,-127.77639 0,0 z"
         style="fill:none;stroke:#19eb00;stroke-width:50;stroke-linecap:butt;stroke-linejoin:miter;stroke-miterlimit:4;stroke-opacity:1;stroke-dasharray:none" />
      <path
         inkscape:connector-curvature="0"
         id="path4530"
         d="m 636,966.36218 c 0.0845,43.16022 -5.15453,91.88632 -18,124.00002"
         style="fill:none;stroke:#19eb00;stroke-width:50;stroke-linecap:butt;stroke-linejoin:miter;stroke-miterlimit:4;stroke-opacity:1;stroke-dasharray:none" />
      <path
         inkscape:connector-curvature="0"
         id="path4532"
         d="m 718,1086.3622 c 33.20012,2.1553 64.4171,-1.2269 84,-32 13.94847,-21.919 20.48365,-44.2091 30,-68.00002 2.2532,-5.633 11.53521,-98 14,-98 3.43497,0 -12.9161,72.20635 -14,76 -16.48784,57.70742 -11.86789,134.00002 54,134.00002"
         style="fill:none;stroke:#19eb00;stroke-width:50;stroke-linecap:butt;stroke-linejoin:miter;stroke-miterlimit:4;stroke-opacity:1;stroke-dasharray:none" />
      <path
         inkscape:connector-curvature="0"
         id="path4534"
         d="m 766,942.36218 c 48.70391,-1.5278 97.77602,6 146,6"
         style="fill:none;stroke:#19eb00;stroke-width:50;stroke-linecap:butt;stroke-linejoin:miter;stroke-miterlimit:4;stroke-opacity:1;stroke-dasharray:none" />
      <path
         inkscape:connector-curvature="0"
         id="path4542"
         d="m 992,1096.3622 c 0,0 0,0 0,0 0,-63.7049 34.3358,5.7226 0,0 z"
         style="fill:none;stroke:#19eb00;stroke-width:50;stroke-linecap:butt;stroke-linejoin:miter;stroke-miterlimit:4;stroke-opacity:1;stroke-dasharray:none" />
      <path
         inkscape:connector-curvature="0"
         id="path4544"
         d="m 1088,1104.3622 c -85.5328,-12.0426 55.4012,-55.4012 0,0 z"
         style="fill:none;stroke:#19eb00;stroke-width:50;stroke-linecap:butt;stroke-linejoin:miter;stroke-miterlimit:4;stroke-opacity:1;stroke-dasharray:none" />
      <path
         inkscape:connector-curvature="0"
         id="path4546"
         d="m 1176,1110.3622 c -81.2932,0.7423 34.9159,-58.1931 0,0 z"
         style="fill:none;stroke:#19eb00;stroke-width:50;stroke-linecap:butt;stroke-linejoin:miter;stroke-miterlimit:4;stroke-opacity:1;stroke-dasharray:none" />
    </g>
  </g>
  <g
     inkscape:groupmode="layer"
     id="layer3"
     inkscape:label="background">
    <rect
       style="fill:none;stroke:none"
       id="rect4608"
       width="588.31287"
       height="588.31287"
       x="62.710678"
       y="150.09393"
       inkscape:export-filename="/home/ishikura/Desktop/wait.png"
       inkscape:export-xdpi="25.438484"
       inkscape:export-ydpi="25.438484" />
  </g>
</svg>
